<svg width="30.000000" height="30.000000" viewBox="0 0 30 30" fill="none" xmlns="http://www.w3.org/2000/svg" xmlns:xlink="http://www.w3.org/1999/xlink">
	<desc>
			Created with Pixso.
	</desc>
	<defs>
		<clipPath id="clip3_375">
			<rect id="setting" width="30.000000" height="30.000000" fill="white" fill-opacity="0"/>
		</clipPath>
	</defs>
	<g clip-path="url(#clip3_375)">
		<path id="path" d="M15 18.75C12.9319 18.75 11.25 17.0681 11.25 15C11.25 12.9319 12.9319 11.25 15 11.25C17.0681 11.25 18.75 12.9319 18.75 15C18.75 17.0681 17.0681 18.75 15 18.75ZM15 9.375C14.8158 9.375 14.632 9.38403 14.4487 9.40208C14.2653 9.42015 14.0833 9.44714 13.9026 9.48308C13.7219 9.51903 13.5435 9.56374 13.3671 9.61722C13.1909 9.67068 13.0176 9.73268 12.8474 9.80318C12.6772 9.87367 12.5109 9.95235 12.3484 10.0392C12.1859 10.126 12.0281 10.2206 11.8749 10.323C11.7217 10.4253 11.574 10.5349 11.4315 10.6518C11.2891 10.7687 11.1528 10.8923 11.0225 11.0225C10.8923 11.1528 10.7687 11.2891 10.6518 11.4315C10.535 11.5739 10.4254 11.7217 10.323 11.8749C10.2206 12.0281 10.126 12.1859 10.0392 12.3484C9.95233 12.5109 9.87366 12.6772 9.80316 12.8474C9.73267 13.0176 9.67072 13.1909 9.61719 13.3671C9.56372 13.5434 9.51904 13.7219 9.48309 13.9026C9.44714 14.0833 9.42017 14.2653 9.4021 14.4487C9.38403 14.632 9.375 14.8158 9.375 15C9.375 15.1842 9.38403 15.368 9.4021 15.5513C9.42017 15.7347 9.44714 15.9167 9.48309 16.0974C9.51904 16.2781 9.56372 16.4566 9.61719 16.6329C9.67072 16.8091 9.73267 16.9824 9.80316 17.1526C9.87366 17.3228 9.95233 17.4891 10.0392 17.6516C10.126 17.8141 10.2206 17.9719 10.323 18.1251C10.4254 18.2783 10.535 18.4261 10.6518 18.5685C10.7687 18.7109 10.8923 18.8472 11.0225 18.9775C11.1528 19.1077 11.2891 19.2313 11.4315 19.3482C11.574 19.4651 11.7217 19.5747 11.8749 19.677C12.0281 19.7794 12.1859 19.874 12.3484 19.9608C12.5109 20.0477 12.6772 20.1263 12.8474 20.1968C13.0176 20.2673 13.1909 20.3293 13.3671 20.3828C13.5435 20.4363 13.7219 20.481 13.9026 20.5169C14.0833 20.5529 14.2653 20.5799 14.4487 20.5979C14.632 20.616 14.8158 20.625 15 20.625C15.1842 20.625 15.368 20.616 15.5513 20.5979C15.7347 20.5798 15.9167 20.5529 16.0974 20.5169C16.2781 20.481 16.4565 20.4363 16.6329 20.3828C16.8091 20.3293 16.9824 20.2673 17.1526 20.1968C17.3228 20.1263 17.4891 20.0477 17.6516 19.9608C17.8141 19.874 17.9719 19.7794 18.1251 19.677C18.2783 19.5747 18.426 19.4651 18.5685 19.3482C18.7109 19.2313 18.8472 19.1077 18.9775 18.9775C19.1077 18.8472 19.2313 18.7109 19.3482 18.5685C19.465 18.4261 19.5746 18.2783 19.677 18.1251C19.7794 17.9719 19.874 17.8141 19.9608 17.6516C20.0477 17.4891 20.1263 17.3228 20.1968 17.1526C20.2673 16.9824 20.3293 16.8091 20.3828 16.6328C20.4363 16.4566 20.481 16.2781 20.5169 16.0974C20.5529 15.9167 20.5798 15.7347 20.5979 15.5513C20.616 15.368 20.625 15.1842 20.625 15C20.625 14.8158 20.616 14.632 20.5979 14.4487C20.5798 14.2653 20.5529 14.0833 20.5169 13.9026C20.481 13.7219 20.4363 13.5434 20.3828 13.3671C20.3293 13.1909 20.2673 13.0176 20.1968 12.8474C20.1263 12.6772 20.0477 12.5109 19.9608 12.3484C19.874 12.1859 19.7794 12.0281 19.677 11.8749C19.5746 11.7217 19.465 11.5739 19.3482 11.4315C19.2313 11.2891 19.1077 11.1528 18.9775 11.0225C18.8472 10.8923 18.7109 10.7687 18.5685 10.6518C18.426 10.5349 18.2783 10.4253 18.1251 10.323C17.9719 10.2206 17.8141 10.126 17.6516 10.0392C17.4891 9.95235 17.3228 9.87367 17.1526 9.80318C16.9824 9.73268 16.8091 9.67068 16.6329 9.61722C16.4565 9.56374 16.2781 9.51903 16.0974 9.48308C15.9167 9.44714 15.7347 9.42015 15.5513 9.40208C15.368 9.38403 15.1842 9.375 15 9.375Z" fill="#202020" fill-opacity="1.000000" fill-rule="nonzero"/>
		<path id="path" d="M20.3091 21.5494C19.9361 21.8514 19.5405 22.1202 19.1222 22.3556C19.0865 22.3744 19.0528 22.3987 19.0162 22.4184C18.6936 22.5905 18.3611 22.7408 18.0187 22.8694L17.4459 25.0078L17.1741 26.0212C17.1572 26.025 17.1403 26.0306 17.1225 26.0325L16.8666 26.0803C16.7634 26.0991 16.6584 26.1122 16.5544 26.1272C16.039 26.2024 15.5209 26.239 15 26.2369C14.8472 26.2369 14.6934 26.2331 14.5406 26.2275L14.2875 26.2134C14.0057 26.1961 13.7251 26.1673 13.4456 26.1272C13.3425 26.1122 13.2385 26.0991 13.1344 26.0803C13.0489 26.0656 12.9636 26.05 12.8784 26.0334L12.8269 26.0213L12.555 25.0088L11.9813 22.8694C11.4924 22.6809 11.0251 22.4487 10.5797 22.1728C10.2703 21.9841 9.97443 21.7763 9.69189 21.5494L7.55438 22.1222L6.54187 22.3941L6.5072 22.3538C6.4494 22.2892 6.39282 22.2236 6.33752 22.1569C6.27002 22.0753 6.20532 21.9909 6.13971 21.9075C5.96393 21.6863 5.79858 21.4576 5.64374 21.2213C5.59686 21.1528 5.5528 21.0816 5.50781 21.0113C5.34235 20.7531 5.18921 20.4877 5.04846 20.2153C5.00928 20.1407 4.97083 20.0657 4.93311 19.9903C4.88812 19.8994 4.84314 19.8084 4.80096 19.7166C4.72546 19.5521 4.65417 19.3859 4.58716 19.2178C4.54779 19.1203 4.50842 19.0228 4.47095 18.9253L4.38373 18.6778L4.36877 18.6281L5.10657 17.8903L6.67596 16.3191C6.61139 15.9185 6.57544 15.5154 6.56812 15.1097C6.56812 15.0722 6.5625 15.0366 6.5625 15C6.5625 14.9625 6.56812 14.9278 6.56812 14.8903C6.57544 14.4846 6.61139 14.0815 6.67596 13.6809L5.10657 12.1097L4.36877 11.3719C4.40161 11.2724 4.43567 11.1733 4.47095 11.0747C4.50842 10.9763 4.54779 10.8788 4.58722 10.7803C4.97699 9.81033 5.49451 8.91409 6.13971 8.09157C6.20532 8.00813 6.27002 7.9247 6.33655 7.84312C6.39282 7.7775 6.44904 7.71188 6.5072 7.64626L6.54187 7.60594L7.55438 7.87782L9.69189 8.44969C9.97217 8.22188 10.2703 8.01845 10.5797 7.82625L10.6987 7.75406C11.1083 7.50945 11.5358 7.30164 11.9813 7.13063L12.555 4.99126L12.8269 3.97876L12.8784 3.96657C12.9628 3.95062 13.0472 3.93375 13.1334 3.91969C13.2366 3.90189 13.3434 3.88687 13.4484 3.87282C13.6266 3.8475 13.8047 3.82594 13.9857 3.80814C14.171 3.79169 14.3566 3.78012 14.5425 3.77344C14.6944 3.76688 14.8472 3.76219 15 3.76219C15.1528 3.76219 15.3066 3.76688 15.4584 3.77344C15.6443 3.78014 15.83 3.79169 16.0153 3.80814C16.1934 3.825 16.3734 3.8475 16.5516 3.87375C16.6575 3.88687 16.7625 3.90189 16.8675 3.91875L17.1225 3.96657L17.1741 3.97781L17.4459 4.99126L18.0178 7.12968C18.361 7.26187 18.6966 7.4072 19.0162 7.58063C19.0528 7.60031 19.0865 7.62469 19.1222 7.64438C19.5413 7.88063 19.9378 8.14876 20.3091 8.45062L22.4466 7.87688L23.4581 7.60594L23.4938 7.64531C23.55 7.71094 23.6082 7.77657 23.6625 7.84312C23.73 7.92375 23.7938 8.00813 23.8594 8.09062C23.9719 8.23282 24.0806 8.37781 24.1856 8.52563C24.2438 8.60812 24.3 8.6925 24.3563 8.77594L24.4931 8.98781C24.7038 9.3177 24.8953 9.65833 25.0678 10.0097C25.1921 10.2627 25.3071 10.5199 25.4128 10.7812C25.4522 10.8788 25.4925 10.9763 25.53 11.0756C25.5598 11.1572 25.5885 11.239 25.6163 11.3212C25.6219 11.3381 25.6256 11.355 25.6322 11.3719L24.8943 12.1097L23.324 13.68C23.3811 14.0381 23.4152 14.3985 23.4263 14.7609C23.4281 14.8406 23.4375 14.9203 23.4375 15C23.4375 15.0806 23.4281 15.1594 23.4263 15.2391C23.4148 15.6013 23.3804 15.9613 23.3231 16.3191L24.8943 17.8903L25.6322 18.6281L25.6163 18.6778C25.5881 18.7603 25.56 18.8419 25.53 18.9234C25.4925 19.0228 25.4531 19.1203 25.4128 19.2188C25.3077 19.4803 25.1927 19.7375 25.0678 19.9903C24.9618 20.2028 24.8499 20.4122 24.7322 20.6184C24.6553 20.7516 24.5747 20.8819 24.4931 21.0122C24.4481 21.0816 24.4031 21.1528 24.3572 21.2213C24.2021 21.4579 24.0364 21.687 23.8603 21.9084C23.7947 21.9928 23.7291 22.0753 23.6635 22.1559C23.6072 22.2234 23.551 22.2881 23.4938 22.3537C23.4825 22.3678 23.4703 22.38 23.4581 22.3931L22.4456 22.1222L20.3091 21.5494ZM11.37 25.6313C11.2932 25.605 11.2153 25.5806 11.1394 25.5525L11.0419 25.5169L10.9444 25.4794C11.0878 25.5356 11.2332 25.5844 11.3784 25.6331L11.37 25.6313ZM7.87128 23.6869L7.79346 23.6212C7.73065 23.5678 7.66968 23.5125 7.60779 23.4581L7.60126 23.4525C7.71753 23.5556 7.83374 23.6569 7.95471 23.7534L7.87128 23.6869ZM26.1459 16.4897L26.1403 16.485L26.1375 16.4812L25.2816 15.6253C25.2938 15.4172 25.3125 15.2109 25.3125 15C25.3125 14.7881 25.2938 14.5819 25.2816 14.3737L26.1365 13.5188L26.1403 13.515L26.1459 13.5094L27.7491 11.9062C27.6075 11.3337 27.4278 10.7734 27.21 10.2253C26.9736 9.60822 26.6923 9.01228 26.3663 8.4375C26.0316 7.85625 25.6462 7.32187 25.2403 6.81282C24.8743 6.3503 24.479 5.91435 24.0544 5.505L21.8644 6.09187L21.856 6.0947L21.8513 6.09563L20.6953 6.405C20.3423 6.17355 19.9764 5.9648 19.5975 5.77875L19.2863 4.61626L19.2844 4.6097L19.2825 4.60312L18.6956 2.41125C18.129 2.24811 17.554 2.12372 16.9706 2.03813C16.3179 1.93414 15.661 1.87976 15 1.875C14.3287 1.875 13.6744 1.94063 13.0303 2.03813C12.4416 2.12718 11.865 2.24719 11.3053 2.41125L10.7184 4.60126L10.7156 4.60968L10.7147 4.61438L10.4025 5.77875C10.0237 5.96812 9.65533 6.17343 9.30469 6.40688L8.15063 6.0975L8.14404 6.09563L8.13751 6.09282L5.94653 5.505C5.52374 5.90813 5.13092 6.34875 4.76062 6.81281C4.34399 7.32593 3.96838 7.86749 3.63373 8.4375C3.2981 9.01875 3.02814 9.61874 2.78998 10.2253C2.57245 10.7736 2.39246 11.3339 2.25 11.9062L3.85315 13.5094L3.85968 13.5159L3.86249 13.5197L4.71844 14.3756C4.70624 14.5828 4.6875 14.7891 4.6875 15C4.6875 15.2109 4.70624 15.4162 4.71936 15.6244L3.86438 16.4794L3.8606 16.4841L3.85498 16.4897L2.25 18.0938C2.38782 18.66 2.57251 19.2206 2.78906 19.7737C3.02716 20.3803 3.29718 20.9812 3.63281 21.5625C3.96844 22.1438 4.35278 22.6781 4.7597 23.1862C5.13092 23.6512 5.52283 24.0909 5.94562 24.4941L8.1347 23.9072L8.14313 23.9053L8.14783 23.9034L9.3028 23.5941C9.65436 23.8266 10.0228 24.0309 10.4016 24.2203L10.7137 25.3837L10.7137 25.3903L10.7166 25.3969L11.3044 27.5878C11.8641 27.7519 12.4406 27.8728 13.0294 27.9609C13.6815 28.0652 14.3378 28.1199 14.9981 28.125C15.6713 28.125 16.3247 28.0594 16.9697 27.9609C17.5532 27.8758 18.1282 27.7514 18.6947 27.5878L19.2816 25.3978L19.2834 25.3903L19.2853 25.3847L19.5966 24.2222C19.9753 24.0319 20.3438 23.8266 20.6934 23.5941L21.8494 23.9034L21.855 23.9053L21.8616 23.9072L24.0535 24.4941C24.4753 24.0909 24.8681 23.6512 25.2394 23.1862C25.656 22.6733 26.032 22.132 26.3672 21.5625C26.7028 20.9812 26.9719 20.3813 27.21 19.7737C27.4275 19.2206 27.6122 18.6609 27.75 18.0938L26.1459 16.4897Z" fill="#202020" fill-opacity="1.000000" fill-rule="nonzero"/>
	</g>
</svg>
