<svg width="201.000000" height="201.000000" viewBox="0 0 201 201" fill="none" xmlns="http://www.w3.org/2000/svg" xmlns:xlink="http://www.w3.org/1999/xlink">
	<desc>
			Created with Pixso.
	</desc>
	<defs>
		<clipPath id="clip3_426">
			<rect id="setting" width="201.000000" height="201.000000" fill="white" fill-opacity="0"/>
		</clipPath>
	</defs>
	<g clip-path="url(#clip3_426)">
		<path id="path" d="M46.6132 15.6061L68.0197 32.4273C72.3496 30.3628 76.8365 28.7297 81.4804 27.5279L87.0581 0.882874C95.9608 -0.299469 104.863 -0.299469 113.766 0.882874L119.356 27.5279C124.03 28.7402 128.527 30.3859 132.811 32.4273L154.217 15.6061C161.798 20.4231 168.616 26.1495 174.669 32.7853L161.83 56.786C164.594 60.6615 166.993 64.8071 168.991 69.1789L196.22 70.0583C198.871 78.3998 200.466 87.2249 200.837 96.3579L175.561 106.49C175.184 111.332 174.342 116.043 173.086 120.591L193.381 138.756C189.957 147.06 185.5 154.765 180.008 161.871L154.129 153.392C150.769 156.803 147.117 159.868 143.175 162.587L147.044 189.559C139.089 193.733 130.722 196.778 121.944 198.692L107.573 175.546C102.803 175.995 98.0335 175.995 93.264 175.546L78.8925 198.692C70.1169 196.777 61.7524 193.733 53.7989 189.559L57.6619 162.587C53.7194 159.866 50.0679 156.799 46.7074 153.385L20.8286 161.878C15.3366 154.769 10.8791 147.062 7.45584 138.756L27.7443 120.585C26.4943 116.037 25.6589 111.326 25.2758 106.483L0 96.3579C0.376862 87.2249 1.95975 78.3998 4.61673 70.052L31.8397 69.1726C33.8434 64.8071 36.2428 60.6615 39.0066 56.786L26.1614 32.7916C32.2148 26.1558 39.032 20.4231 46.6132 15.6061ZM100.418 138.191C101.653 138.191 102.884 138.13 104.112 138.01C105.341 137.889 106.56 137.708 107.771 137.467C108.981 137.226 110.177 136.926 111.358 136.568C112.54 136.21 113.7 135.795 114.841 135.322C115.981 134.85 117.096 134.323 118.184 133.741C119.273 133.159 120.33 132.525 121.356 131.839C122.383 131.154 123.373 130.419 124.327 129.636C125.281 128.853 126.195 128.025 127.067 127.153C127.94 126.28 128.768 125.366 129.551 124.412C130.334 123.458 131.069 122.468 131.754 121.442C132.44 120.415 133.074 119.358 133.656 118.269C134.238 117.181 134.765 116.066 135.237 114.926C135.709 113.786 136.125 112.625 136.483 111.444C136.841 110.262 137.141 109.067 137.382 107.856C137.622 106.645 137.803 105.426 137.924 104.198C138.045 102.969 138.106 101.738 138.106 100.503C138.106 99.2692 138.045 98.0378 137.924 96.8095C137.803 95.5811 137.622 94.3616 137.382 93.151C137.141 91.9404 136.841 90.7446 136.483 89.5634C136.125 88.3822 135.709 87.2215 135.237 86.0811C134.765 84.9407 134.238 83.8263 133.656 82.7377C133.074 81.6491 132.44 80.5917 131.754 79.5654C131.069 78.5391 130.334 77.5489 129.551 76.5948C128.768 75.6407 127.94 74.7272 127.067 73.8544C126.195 72.9816 125.281 72.1537 124.327 71.3707C123.373 70.5876 122.383 69.8532 121.356 69.1675C120.33 68.4817 119.273 67.8479 118.184 67.2661C117.096 66.6842 115.981 66.1571 114.841 65.6848C113.7 65.2124 112.54 64.7971 111.358 64.4388C110.177 64.0805 108.981 63.7809 107.771 63.5401C106.56 63.2993 105.341 63.1184 104.112 62.9975C102.884 62.8765 101.653 62.816 100.418 62.816C99.184 62.816 97.9527 62.8765 96.7243 62.9975C95.4959 63.1184 94.2765 63.2993 93.0659 63.5401C91.8553 63.7809 90.6594 64.0805 89.4782 64.4388C88.2971 64.7971 87.1363 65.2124 85.9959 65.6848C84.8556 66.1571 83.7411 66.6842 82.6526 67.2661C81.564 67.8479 80.5066 68.4817 79.4803 69.1675C78.454 69.8532 77.4638 70.5876 76.5096 71.3706C75.5555 72.1537 74.6421 72.9816 73.7693 73.8544C72.8965 74.7272 72.0685 75.6407 71.2855 76.5948C70.5024 77.5489 69.7681 78.5391 69.0823 79.5654C68.3966 80.5917 67.7628 81.6491 67.1809 82.7377C66.5991 83.8263 66.072 84.9407 65.5996 86.0811C65.1273 87.2215 64.7119 88.3822 64.3536 89.5634C63.9954 90.7445 63.6958 91.9404 63.455 93.151C63.2142 94.3616 63.0333 95.5811 62.9123 96.8095C62.7914 98.0378 62.7308 99.2692 62.7308 100.503C62.7308 101.738 62.7914 102.969 62.9123 104.198C63.0333 105.426 63.2142 106.645 63.455 107.856C63.6958 109.067 63.9954 110.262 64.3536 111.444C64.7119 112.625 65.1273 113.786 65.5996 114.926C66.072 116.066 66.5991 117.181 67.1809 118.269C67.7628 119.358 68.3966 120.415 69.0823 121.442C69.7681 122.468 70.5024 123.458 71.2855 124.412C72.0685 125.366 72.8965 126.28 73.7693 127.153C74.6421 128.025 75.5555 128.853 76.5096 129.636C77.4638 130.419 78.454 131.154 79.4803 131.839C80.5066 132.525 81.564 133.159 82.6526 133.741C83.7411 134.323 84.8556 134.85 85.9959 135.322C87.1363 135.795 88.2971 136.21 89.4782 136.568C90.6594 136.926 91.8553 137.226 93.0659 137.467C94.2765 137.708 95.4959 137.889 96.7243 138.01C97.9527 138.13 99.184 138.191 100.418 138.191Z" fill="#3D3D3D" fill-opacity="1.000000" fill-rule="nonzero"/>
	</g>
</svg>
